# Blender v3.2.2 OBJ File: 'TerrainTiles.blend'
# www.blender.org
mtllib Base_90.mtl
o Base_90_Cube.004
v -1.000000 -1.000000 0.800000
v -1.000000 0.000000 0.800000
v 0.800000 0.000000 0.800000
v 0.000000 -1.000000 0.800000
v 0.000000 0.000000 0.800000
v -1.000000 0.450000 0.950000
v 0.950000 0.450000 0.950000
v 0.000000 0.450000 0.950000
v -1.000000 0.882500 0.950000
v 0.950000 0.882500 0.950000
v 0.000000 0.882500 0.950000
v 0.750000 -1.000000 0.800000
v 0.750000 0.000000 0.800000
v 0.900000 0.450000 0.950000
v 0.900000 0.882500 0.950000
v -0.950000 -1.000000 0.800000
v -0.950000 0.000000 0.800000
v -0.950000 0.450000 0.950000
v -0.950000 0.882500 0.950000
v 0.800000 -1.000000 0.800000
v 0.800000 -1.000000 -1.000000
v 0.800000 0.000000 -1.000000
v 0.800000 -1.000000 -0.050000
v 0.800000 0.000000 -0.050000
v 0.950000 0.450000 -1.000000
v 0.950000 0.450000 -0.050000
v 0.950000 0.882500 -1.000000
v 0.950000 0.882500 -0.050000
v 0.800000 -1.000000 0.750000
v 0.800000 0.000000 0.750000
v 0.950000 0.450000 0.900000
v 0.950000 0.882500 0.900000
v 0.800000 -1.000000 -0.950000
v 0.800000 0.000000 -0.950000
v 0.950000 0.450000 -0.950000
v 0.950000 0.882500 -0.950000
v -1.000000 -1.000000 -0.800000
v -1.000000 0.000000 -0.800000
v -1.000000 0.450000 -0.950000
v -1.000000 0.882500 -0.950000
v -0.800000 -1.000000 -1.000000
v -0.800000 0.000000 -1.000000
v -0.950000 0.450000 -1.000000
v -0.950000 0.882500 -1.000000
vt 0.015625 0.000000
vt 0.015625 0.265625
vt 0.000000 0.265625
vt 0.000000 0.000000
vt 0.437500 0.000000
vt 0.437500 0.265625
vt 0.265625 0.265625
vt 0.265625 0.000000
vt 0.484375 0.390625
vt 0.265625 0.390625
vt 0.015625 0.390625
vt 0.000000 0.390625
vt 0.484375 0.500000
vt 0.265625 0.500000
vt 0.015625 0.500000
vt 0.000000 0.500000
vt 0.500000 0.390625
vt 0.500000 0.500000
vt 0.453125 0.265625
vt 0.453125 0.000000
vt 0.484375 0.000000
vt 0.500000 0.000000
vt 0.500000 0.265625
vt 0.484375 0.265625
vt 0.062500 0.000000
vt 0.250000 0.000000
vt 0.250000 0.265625
vt 0.062500 0.265625
vt 0.250000 0.375000
vt 0.015625 0.375000
vt 0.500000 0.375000
vt 0.484375 0.375000
vt 0.250000 0.500000
vt 0.015625 0.500000
vt 0.500000 0.500000
vt 0.484375 0.500000
vt 0.000000 0.375000
vt 0.000000 0.500000
vt 0.046875 0.265625
vt 0.046875 0.000000
vt 0.460938 0.500000
vt 0.445312 0.500000
vt 0.445312 0.375000
vt 0.460938 0.375000
vt 0.414062 0.265625
vt 0.492188 0.265625
vt 0.414062 0.000000
vt 0.492188 0.000000
vn 0.0000 0.0000 1.0000
vn 0.0000 -0.3162 0.9487
vn 1.0000 0.0000 0.0000
vn 0.9487 -0.3162 -0.0000
vn -0.7071 0.0000 -0.7071
vn -0.6882 -0.2294 -0.6882
usemtl TerrailTileMaterial
s off
f 16/1/1 17/2/1 2/3/1 1/4/1
f 12/5/1 13/6/1 5/7/1 4/8/1
f 13/6/2 14/9/2 8/10/2 5/7/2
f 17/2/2 18/11/2 6/12/2 2/3/2
f 14/9/1 15/13/1 11/14/1 8/10/1
f 18/11/1 19/15/1 9/16/1 6/12/1
f 7/17/1 10/18/1 15/13/1 14/9/1
f 3/19/2 7/17/2 14/9/2 13/6/2
f 20/20/1 3/19/1 13/6/1 12/5/1
f 8/10/1 11/14/1 19/15/1 18/11/1
f 5/7/2 8/10/2 18/11/2 17/2/2
f 4/8/1 5/7/1 17/2/1 16/1/1
f 33/21/3 21/22/3 22/23/3 34/24/3
f 29/25/3 23/26/3 24/27/3 30/28/3
f 30/28/4 24/27/4 26/29/4 31/30/4
f 34/24/4 22/23/4 25/31/4 35/32/4
f 31/30/3 26/29/3 28/33/3 32/34/3
f 35/32/3 25/31/3 27/35/3 36/36/3
f 7/37/3 31/30/3 32/34/3 10/38/3
f 3/39/4 30/28/4 31/30/4 7/37/4
f 20/40/3 29/25/3 30/28/3 3/39/3
f 26/29/3 35/32/3 36/36/3 28/33/3
f 24/27/4 34/24/4 35/32/4 26/29/4
f 23/26/3 33/21/3 34/24/3 24/27/3
f 40/41/5 44/42/5 43/43/5 39/44/5
f 39/44/6 43/43/6 42/45/6 38/46/6
f 38/46/5 42/45/5 41/47/5 37/48/5
