# Blender v3.2.2 OBJ File: 'TerrainTiles.blend'
# www.blender.org
mtllib Base_Transition.mtl
o Base_Transition_Cube.003
v 1.000000 -1.000000 -0.800000
v -1.000000 -1.000000 -1.000000
v 1.000000 0.000000 -0.800000
v -1.000000 0.000000 -1.000000
v 1.000000 0.450000 -0.950000
v -1.000000 0.450000 -1.000000
v 1.000000 0.882500 -0.950000
v -1.000000 0.882500 -1.000000
v 0.950000 -1.000000 -0.800000
v 0.950000 0.000000 -0.800000
v 0.950000 0.450000 -0.950000
v 0.950000 0.882500 -0.950000
v -0.950000 -1.000000 -1.000000
v -0.950000 0.000000 -1.000000
v -0.950000 0.450000 -1.000000
v -0.950000 0.882500 -1.000000
v -1.000000 0.882500 -0.950000
v -0.950000 0.882500 -0.950000
v 1.000000 -1.000000 0.800000
v -1.000000 -1.000000 1.000000
v 1.000000 0.000000 0.800000
v -1.000000 0.000000 1.000000
v 1.000000 0.450000 0.950000
v -1.000000 0.450000 1.000000
v 1.000000 0.882500 0.950000
v -1.000000 0.882500 1.000000
v 0.950000 -1.000000 0.800000
v 0.950000 0.000000 0.800000
v 0.950000 0.450000 0.950000
v 0.950000 0.882500 0.950000
v -0.950000 -1.000000 1.000000
v -0.950000 0.000000 1.000000
v -0.950000 0.450000 1.000000
v -0.950000 0.882500 1.000000
v -1.000000 0.882500 0.950000
v -0.950000 0.882500 0.950000
vt 0.484375 0.000000
vt 0.484375 0.265625
vt 0.500000 0.265625
vt 0.500000 0.000000
vt 0.015625 0.375000
vt 0.484375 0.375000
vt 0.015625 0.265625
vt 0.015625 0.500000
vt 0.484375 0.500000
vt 0.500000 0.375000
vt 0.357546 0.356217
vt 0.117520 0.362533
vt 0.117520 0.356217
vt 0.500000 0.500000
vt 0.000000 0.375000
vt 0.000000 0.500000
vt 0.000000 0.265625
vt 0.000000 0.000000
vt 0.015625 0.000000
vt 0.111204 0.362533
vt 0.111204 0.356217
vt 0.484375 0.000000
vt 0.500000 0.000000
vt 0.500000 0.265625
vt 0.484375 0.265625
vt 0.015625 0.375000
vt 0.015625 0.265625
vt 0.484375 0.375000
vt 0.015625 0.500000
vt 0.484375 0.500000
vt 0.500000 0.375000
vt 0.357546 0.356217
vt 0.117520 0.356217
vt 0.117520 0.362533
vt 0.500000 0.500000
vt 0.000000 0.375000
vt 0.000000 0.500000
vt 0.000000 0.265625
vt 0.000000 0.000000
vt 0.015625 0.000000
vt 0.111204 0.356217
vt 0.111204 0.362533
vn 0.0000 0.0000 -1.0000
vn 0.0648 -0.1641 -0.9843
vn 0.0263 0.0000 -0.9997
vn 0.0000 -0.3162 -0.9487
vn 0.0000 1.0000 0.0000
vn 0.1047 0.0000 -0.9945
vn 0.0000 0.0000 1.0000
vn 0.0648 -0.1641 0.9843
vn 0.0263 0.0000 0.9997
vn 0.0000 -0.3162 0.9487
vn 0.1047 0.0000 0.9945
usemtl TerrailTileMaterial
s off
f 9/1/1 10/2/1 3/3/1 1/4/1
f 15/5/2 11/6/2 10/2/2 14/7/2
f 16/8/3 12/9/3 11/6/3 15/5/3
f 10/2/4 11/6/4 5/10/4 3/3/4
f 12/11/5 16/12/5 18/13/5
f 11/6/1 12/9/1 7/14/1 5/10/1
f 6/15/1 8/16/1 16/8/1 15/5/1
f 4/17/1 6/15/1 15/5/1 14/7/1
f 2/18/1 4/17/1 14/7/1 13/19/1
f 16/12/5 8/20/5 17/21/5 18/13/5
f 14/7/6 10/2/6 9/1/6 13/19/6
f 27/22/7 19/23/7 21/24/7 28/25/7
f 33/26/8 32/27/8 28/25/8 29/28/8
f 34/29/9 33/26/9 29/28/9 30/30/9
f 28/25/10 21/24/10 23/31/10 29/28/10
f 30/32/5 36/33/5 34/34/5
f 29/28/7 23/31/7 25/35/7 30/30/7
f 24/36/7 33/26/7 34/29/7 26/37/7
f 22/38/7 32/27/7 33/26/7 24/36/7
f 20/39/7 31/40/7 32/27/7 22/38/7
f 34/34/5 36/33/5 35/41/5 26/42/5
f 32/27/11 31/40/11 27/22/11 28/25/11
