# Blender v3.2.2 OBJ File: 'TerrainTiles.blend'
# www.blender.org
mtllib Top_Grass.mtl
o Top_Grass_Cube.012
v -0.900000 1.000000 -1.000000
v 0.000000 0.882500 -1.000000
v -1.000000 1.000000 1.000000
v 1.000000 1.000000 1.000000
v 1.000000 1.000000 0.000000
v 1.000000 0.882500 -1.000000
v -0.000000 1.000000 1.000000
v -1.000000 1.000000 -0.000000
v 0.000000 1.000000 0.000000
v 0.900000 1.000000 1.000000
v 0.900000 1.000000 0.000000
v -0.900000 1.000000 1.000000
v -1.000000 0.882500 -1.000000
v -0.900000 1.000000 -0.000000
v 1.000000 0.882500 1.000000
v 0.000000 1.000000 -1.000000
v 1.000000 1.000000 -1.000000
v -1.000000 0.882500 1.000000
v -1.000000 0.882500 -0.000000
v 1.000000 0.882500 0.000000
v -1.000000 1.000000 -0.900000
v 1.000000 1.000000 -0.900000
v 0.000000 1.000000 -0.900000
v 0.900000 1.000000 -0.900000
v 1.000000 0.882500 -0.900000
v -1.000000 0.882500 -0.900000
v 1.000000 1.000000 0.900000
v -1.000000 1.000000 0.900000
v -0.000000 1.000000 0.900000
v 0.900000 1.000000 0.900000
v -0.900000 1.000000 0.900000
v -1.000000 0.882500 0.900000
v 1.000000 0.882500 0.900000
v -0.900000 1.000000 -0.900000
v -0.900000 0.882500 -1.000000
v 0.900000 1.000000 -1.000000
v -1.000000 1.000000 -1.000000
v 0.900000 0.882500 -1.000000
v -0.000000 0.882500 1.000000
v 0.900000 0.882500 1.000000
v -0.900000 0.882500 1.000000
vt 0.934927 0.430316
vt 0.955060 0.430456
vt 0.951436 0.446507
vt 0.935457 0.450451
vt 0.945207 0.474954
vt 0.968493 0.463226
vt 0.510134 0.250707
vt 0.534766 0.250637
vt 0.546356 0.430865
vt 0.523992 0.438541
vt 0.938489 0.019386
vt 0.930253 0.043336
vt 0.746843 0.034141
vt 0.746393 0.009290
vt 0.554985 0.473989
vt 0.565255 0.449518
vt 0.750377 0.462931
vt 0.750374 0.488212
vt 0.566286 0.429628
vt 0.750386 0.441928
vt 0.566075 0.068975
vt 0.747195 0.054852
vt 0.749090 0.248277
vt 0.555330 0.250624
vt 0.929416 0.062943
vt 0.949004 0.061510
vt 0.963952 0.245402
vt 0.943053 0.245715
vt 0.945284 0.046581
vt 0.564782 0.048767
vt 0.550721 0.445700
vt 0.533528 0.458878
vt 0.545834 0.067934
vt 0.522954 0.058880
vt 0.555329 0.025739
vt 0.959595 0.031798
vt 0.550554 0.053668
vt 0.534022 0.037369
vt 0.979731 0.439708
vt 0.989065 0.245010
vt 0.972726 0.052501
vn 0.0000 1.0000 0.0000
vn 1.0000 -0.0000 0.0000
vn 0.0000 0.0000 -1.0000
vn -1.0000 0.0000 -0.0000
vn 0.0000 0.0000 1.0000
usemtl TerrailTileMaterial
s off
f 30/1/1 10/2/1 4/3/1 27/4/1
f 33/5/2 27/4/2 4/3/2 15/6/2
f 2/7/3 16/8/3 36/9/3 38/10/3
f 32/11/4 28/12/4 8/13/4 19/14/4
f 25/15/2 22/16/2 5/17/2 20/18/2
f 24/19/1 11/20/1 5/17/1 22/16/1
f 34/21/1 14/22/1 9/23/1 23/24/1
f 31/25/1 12/26/1 7/27/1 29/28/1
f 23/24/1 9/23/1 11/20/1 24/19/1
f 29/28/1 7/27/1 10/2/1 30/1/1
f 28/12/1 3/29/1 12/26/1 31/25/1
f 21/30/1 8/13/1 14/22/1 34/21/1
f 23/24/1 24/19/1 36/9/1 16/8/1
f 24/19/1 17/31/1 36/9/1
f 38/10/3 36/9/3 17/31/3 6/32/3
f 34/21/1 23/24/1 16/8/1 1/33/1
f 35/34/3 1/33/3 16/8/3 2/7/3
f 19/14/4 8/13/4 21/30/4 26/35/4
f 8/13/1 28/12/1 31/25/1 14/22/1
f 9/23/1 29/28/1 30/1/1 11/20/1
f 14/22/1 31/25/1 29/28/1 9/23/1
f 18/36/4 3/29/4 28/12/4 32/11/4
f 20/18/2 5/17/2 27/4/2 33/5/2
f 11/20/1 30/1/1 27/4/1 5/17/1
f 6/32/2 17/31/2 22/16/2 25/15/2
f 22/16/1 17/31/1 24/19/1
f 26/35/4 21/30/4 37/37/4 13/38/4
f 35/34/3 13/38/3 37/37/3 1/33/3
f 1/33/1 37/37/1 34/21/1
f 37/37/1 21/30/1 34/21/1
f 4/3/5 10/2/5 40/39/5 15/6/5
f 10/2/5 7/27/5 39/40/5 40/39/5
f 7/27/5 12/26/5 41/41/5 39/40/5
f 12/26/5 3/29/5 18/36/5 41/41/5
