# Blender v3.2.2 OBJ File: 'TerrainTiles.blend'
# www.blender.org
mtllib Top_Path_Stright.mtl
o Top_Path_Stright_Cube.006
v -1.000000 1.000000 -1.000000
v 1.000000 1.000000 -1.000000
v -1.000000 1.000000 1.000000
v 1.000000 1.000000 1.000000
v 1.000000 1.000000 0.000000
v 0.000000 0.950000 -1.000000
v -0.000000 0.950000 1.000000
v -1.000000 1.000000 -0.000000
v 0.000000 0.950000 0.000000
v 0.900000 0.950000 -1.000000
v 0.900000 0.950000 1.000000
v 0.900000 0.950000 0.000000
v -0.900000 0.950000 1.000000
v -0.900000 0.950000 -1.000000
v -0.900000 0.950000 -0.000000
v 0.950000 0.882500 1.000000
v -0.950000 0.882500 -1.000000
v 0.950000 0.882500 -1.000000
v -0.950000 0.882500 1.000000
v -0.950000 0.882500 -0.000000
v 0.950000 0.882500 0.000000
v -1.000000 1.000000 -0.900000
v 1.000000 1.000000 -0.900000
v 0.000000 0.950000 -0.900000
v 0.900000 0.950000 -0.900000
v -0.900000 0.950000 -0.900000
v 0.950000 0.882500 -0.900000
v -0.950000 0.882500 -0.900000
v 1.000000 1.000000 0.900000
v -1.000000 1.000000 0.900000
v -0.000000 0.950000 0.900000
v 0.900000 0.950000 0.900000
v -0.900000 0.950000 0.900000
v -0.950000 0.882500 0.900000
v 0.950000 0.882500 0.900000
vt 0.531250 0.562500
vt 0.500000 0.562500
vt 0.500000 0.500000
vt 0.531250 0.500000
vt 0.531250 0.562500
vt 0.531250 0.625000
vt 0.500000 0.625000
vt 0.500000 0.562500
vt 0.531250 0.562500
vt 0.531250 0.625000
vt 0.500000 0.625000
vt 0.500000 0.562500
vt 0.968750 0.562500
vt 0.968750 0.625000
vt 0.750000 0.625000
vt 0.750000 0.562500
vt 0.968750 0.562500
vt 0.968750 0.625000
vt 0.750000 0.625000
vt 0.750000 0.562500
vt 0.968750 0.562500
vt 0.750000 0.562500
vt 0.750000 0.500000
vt 0.968750 0.500000
vt 0.468750 0.968750
vt 0.250000 0.968750
vt 0.250000 0.750000
vt 0.468750 0.750000
vt 0.031250 0.968750
vt 0.000000 0.968750
vt 0.000000 0.750000
vt 0.031250 0.750000
vt 0.250000 0.531250
vt 0.468750 0.531250
vt 0.000000 0.531250
vt 0.031250 0.531250
vt 0.968750 0.500000
vt 1.000000 0.500000
vt 1.000000 0.562500
vt 0.968750 0.562500
vt 0.531250 0.500000
vt 0.750000 0.500000
vt 0.750000 0.562500
vt 0.531250 0.562500
vt 0.500000 0.500000
vt 0.500000 0.562500
vt 0.500000 0.750000
vt 0.500000 0.531250
vt 0.500000 0.968750
vt 1.000000 0.562500
vt 1.000000 0.500000
vt 1.000000 0.562500
vt 1.000000 0.625000
vt 1.000000 0.562500
vt 1.000000 0.625000
vn -0.4472 0.8944 0.0000
vn 0.9202 -0.3916 0.0000
vn -0.9202 -0.3916 0.0000
vn 0.0000 1.0000 -0.0000
vn 0.4472 0.8944 0.0000
usemtl TerrailTileMaterial
s off
f 32/1/1 11/2/1 4/3/1 29/4/1
f 35/5/2 29/6/2 4/7/2 16/8/2
f 28/9/3 22/10/3 1/11/3 17/12/3
f 34/13/3 30/14/3 8/15/3 20/16/3
f 27/17/2 23/18/2 5/19/2 21/20/2
f 25/21/1 12/22/1 5/23/1 23/24/1
f 26/25/4 15/26/4 9/27/4 24/28/4
f 33/29/4 13/30/4 7/31/4 31/32/4
f 24/28/4 9/27/4 12/33/4 25/34/4
f 31/32/4 7/31/4 11/35/4 32/36/4
f 30/37/5 3/38/5 13/39/5 33/40/5
f 22/41/5 8/42/5 15/43/5 26/44/5
f 1/45/5 22/41/5 26/44/5 14/46/5
f 6/47/4 24/28/4 25/34/4 10/48/4
f 14/49/4 26/25/4 24/28/4 6/47/4
f 10/50/1 25/21/1 23/24/1 2/51/1
f 18/52/2 2/53/2 23/18/2 27/17/2
f 20/16/3 8/15/3 22/10/3 28/9/3
f 8/42/5 30/37/5 33/40/5 15/43/5
f 9/27/4 31/32/4 32/36/4 12/33/4
f 15/26/4 33/29/4 31/32/4 9/27/4
f 19/54/3 3/55/3 30/14/3 34/13/3
f 21/20/2 5/19/2 29/6/2 35/5/2
f 12/22/1 32/1/1 29/4/1 5/23/1
